<?xml version="1.0" encoding="UTF-8" standalone="no"?>
<!-- Created with Inkscape (http://www.inkscape.org/) -->

<svg
   width="67.73333mm"
   height="67.73333mm"
   viewBox="0 0 67.73333 67.73333"
   version="1.1"
   id="svg1"
   xml:space="preserve"
   inkscape:version="1.4 (e7c3feb100, 2024-10-09)"
   sodipodi:docname="analogclock.svg"
   xmlns:inkscape="http://www.inkscape.org/namespaces/inkscape"
   xmlns:sodipodi="http://sodipodi.sourceforge.net/DTD/sodipodi-0.dtd"
   xmlns="http://www.w3.org/2000/svg"
   xmlns:svg="http://www.w3.org/2000/svg"><sodipodi:namedview
     id="namedview1"
     pagecolor="#ffffff"
     bordercolor="#666666"
     borderopacity="1.0"
     inkscape:showpageshadow="2"
     inkscape:pageopacity="0.0"
     inkscape:pagecheckerboard="0"
     inkscape:deskcolor="#d1d1d1"
     inkscape:document-units="mm"
     inkscape:window-width="3840"
     inkscape:window-height="2065"
     inkscape:window-x="0"
     inkscape:window-y="0"
     inkscape:window-maximized="1"
     inkscape:current-layer="layer1"
     showguides="true"
     inkscape:antialias-rendering="true"><sodipodi:guide
       position="-157.48526,50.737716"
       orientation="0,-1"
       id="guide39"
       inkscape:locked="false" /><sodipodi:guide
       position="-29.120893,33.510896"
       orientation="1,0"
       id="guide40"
       inkscape:locked="false" /></sodipodi:namedview><defs
     id="defs1" /><g
     inkscape:label="Layer 1"
     inkscape:groupmode="layer"
     id="layer1"
     transform="translate(-108.87138,-208.19469)"><text
       xml:space="preserve"
       style="font-style:normal;font-variant:normal;font-weight:normal;font-stretch:normal;font-size:7.76111px;line-height:1.25;font-family:'Arial Black';-inkscape-font-specification:'Arial Black, ';letter-spacing:0px;word-spacing:0px;stroke-width:0.264583"
       x="53.243698"
       y="384.35294"
       id="text40"><tspan
         sodipodi:role="line"
         id="tspan40"
         style="font-style:normal;font-variant:normal;font-weight:normal;font-stretch:normal;font-size:7.76111px;font-family:'Arial Black';-inkscape-font-specification:'Arial Black, ';stroke-width:0.264583"
         x="53.243698"
         y="384.35294" /></text><text
       xml:space="preserve"
       style="font-size:556.564px;line-height:1.25;font-family:'Capture it';-inkscape-font-specification:'Capture it, Normal';letter-spacing:0px;word-spacing:0px;stroke-width:0.264583"
       x="111.22941"
       y="250.07898"
       id="text41"><tspan
         sodipodi:role="line"
         id="tspan41"
         style="stroke-width:0.264583"
         x="111.22941"
         y="250.07898" /></text><g
       id="g42"
       transform="matrix(0.34908123,0,0,0.34908123,114.90786,83.374768)"><circle
         style="fill:#000000;fill-rule:evenodd;stroke:#ffffff;stroke-width:2.98513;stroke-dasharray:none"
         id="path40"
         cx="79.724098"
         cy="454.58356"
         r="95.524017" /><g
         id="g39"><path
           style="fill:#ff0000;fill-opacity:1;stroke:none;stroke-width:0.628863"
           d="m 102.81903,1788.4851 v -11.6339 H 132.69 162.56097 v 11.6339 11.634 H 132.69 102.81903 Z"
           id="path21"
           transform="scale(0.26458333)" /><path
           style="fill:#ff0000;fill-opacity:1;stroke:none;stroke-width:0.628863"
           d="m 163.18984,1764.5884 v -11.634 h 23.58234 23.58235 v 11.634 11.6339 h -23.58235 -23.58234 z"
           id="path22"
           transform="scale(0.26458333)" /><path
           style="fill:#ff0000;fill-opacity:1;stroke:none;stroke-width:0.628863"
           d="m 210.98339,1740.6916 v -11.634 h 29.55654 29.55654 v 11.634 11.6339 h -29.55654 -29.55654 z"
           id="path23"
           transform="scale(0.26458333)" /><path
           style="fill:#ff0000;fill-opacity:1;stroke:none;stroke-width:0.628863"
           d="m 43.077086,1812.3819 v -11.6339 h 29.556541 29.556543 v 11.6339 11.634 H 72.633627 43.077086 Z"
           id="path24"
           transform="scale(0.26458333)" /><path
           style="fill:#ff0000;fill-opacity:1;stroke:none;stroke-width:0.628863"
           d="m 7.2319195,1836.2787 v -11.634 H 24.840071 42.448223 v 11.634 11.634 H 24.840071 7.2319195 Z"
           id="path25"
           transform="scale(0.26458333)" /><path
           style="fill:#8ae234;fill-opacity:1;stroke:none;stroke-width:0.628863"
           d="m 151.24145,1620.5788 v -11.6339 h 11.63396 11.63395 v 11.6339 11.634 h -11.63395 -11.63396 z"
           id="path26"
           transform="scale(0.26458333)" /><path
           style="fill:#8ae234;fill-opacity:1;stroke:none;stroke-width:0.628863"
           d="m 175.13823,1644.4756 v -11.6339 h 17.60815 17.60815 v 11.6339 11.634 h -17.60815 -17.60815 z"
           id="path27"
           transform="scale(0.26458333)" /><path
           style="fill:#8ae234;fill-opacity:1;stroke:none;stroke-width:0.628863"
           d="m 210.98339,1668.3724 v -11.634 h 17.60815 17.60816 v 11.634 11.634 h -17.60816 -17.60815 z"
           id="path28"
           transform="scale(0.26458333)" /><path
           style="fill:#8ae234;fill-opacity:1;stroke:none;stroke-width:0.628863"
           d="m 270.72534,1716.1659 v -12.2628 h -11.94839 -11.94839 v -11.6339 -11.634 h 17.92258 17.92258 v 11.9484 11.9484 h 5.9742 5.97419 v 4.0876 4.0876 h 5.9742 5.97419 v 5.6598 5.6597 l -4.55925,0.01 c -5.81525,0.011 -7.27134,0.4179 -7.51101,2.0993 -0.24029,1.6857 -3.39762,2.1421 -15.44248,2.232 l -8.33242,0.062 z"
           id="path29"
           transform="scale(0.26458333)" /><path
           style="fill:#8ae234;fill-opacity:1;stroke:none;stroke-width:0.628863"
           d="m 307.19936,1692.2692 v -11.634 h 5.65977 5.65976 v 11.634 11.6339 h -5.65976 -5.65977 z"
           id="path30"
           transform="scale(0.26458333)" /><path
           style="fill:#8ae234;fill-opacity:1;stroke:none;stroke-width:0.628863"
           d="m 319.14775,1668.3724 v -11.634 h 5.65977 5.65976 v 11.634 11.634 h -5.65976 -5.65977 z"
           id="path31"
           transform="scale(0.26458333)" /><path
           style="fill:#8ae234;fill-opacity:1;stroke:none;stroke-width:0.628863"
           d="m 331.09614,1632.5272 v -23.5823 h 5.65977 5.65976 v 23.5823 23.5824 h -5.65976 -5.65977 z"
           id="path32"
           transform="scale(0.26458333)" /><path
           style="fill:#8ae234;fill-opacity:1;stroke:none;stroke-width:0.628863"
           d="m 343.04453,1596.6821 v -11.634 h 5.65976 5.65977 v 11.634 11.6339 h -5.65977 -5.65976 z"
           id="path33"
           transform="scale(0.26458333)" /><path
           style="fill:#8ae234;fill-opacity:1;stroke:none;stroke-width:0.628863"
           d="m 354.99292,1572.4709 v -11.9484 h 5.65976 5.65977 v 11.9484 11.9483 h -5.65977 -5.65976 z"
           id="path34"
           transform="scale(0.26458333)" /><path
           style="fill:#8ae234;fill-opacity:1;stroke:none;stroke-width:0.628863"
           d="m 366.94131,1548.2596 v -11.6339 h 5.65976 5.65977 v 11.6339 11.634 h -5.65977 -5.65976 z"
           id="path35"
           transform="scale(0.26458333)" /><path
           style="fill:#8ae234;fill-opacity:1;stroke:none;stroke-width:0.628863"
           d="m 378.8897,1524.3629 v -11.634 h 5.65976 5.65976 v 11.634 11.6339 h -5.65976 -5.65976 z"
           id="path36"
           transform="scale(0.26458333)" /><path
           style="fill:#8ae234;fill-opacity:1;stroke:none;stroke-width:0.628863"
           d="m 390.83809,1488.5177 v -23.5823 h 5.65976 5.65976 v 23.5823 23.5823 h -5.65976 -5.65976 z"
           id="path37"
           transform="scale(0.26458333)" /><path
           style="fill:#8ae234;fill-opacity:1;stroke:none;stroke-width:0.628863"
           d="m 402.78648,1452.6725 v -11.6339 h 5.65976 5.65976 v 11.6339 11.634 h -5.65976 -5.65976 z"
           id="path38"
           transform="scale(0.26458333)" /><path
           style="fill:#8ae234;fill-opacity:1;stroke:none;stroke-width:0.628863"
           d="m 414.73486,1428.4613 v -11.9484 h 5.65977 5.65976 v 11.9484 11.9484 h -5.65976 -5.65977 z"
           id="path39"
           transform="scale(0.26458333)" /><path
           style="fill:#ff0000;fill-opacity:1;stroke:none;stroke-width:0.12075"
           d="m 71.567693,454.34773 v -3.07816 h 3.286133 3.286135 v 3.07816 3.07813 h -3.286135 -3.286133 z"
           id="path22-1" /><path
           style="fill:#ffffff;fill-opacity:1;stroke:none;stroke-width:0.0577126"
           d="m 77.993696,454.73046 v -1.47121 h 1.570611 1.570612 v 1.47121 1.4712 h -1.570612 -1.570611 z"
           id="path22-1-7" /></g><path
         d="m 74.178195,365.2212 v 20.80236 H 68.429991 V 372.3925 q -1.395196,1.06035 -2.706679,1.71609 -1.297532,0.65574 -3.264758,1.25568 v -4.65996 q 2.902007,-0.93478 4.506481,-2.24626 1.604475,-1.31148 2.511352,-3.23685 z M 96.98964,386.02356 H 79.940352 q 0.292991,-2.5253 1.771898,-4.74366 1.492859,-2.23232 5.580782,-5.25989 2.4974,-1.85561 3.194997,-2.8183 0.697598,-0.96268 0.697598,-1.8277 0,-0.93478 -0.697598,-1.59052 -0.683646,-0.6697 -1.730042,-0.6697 -1.088252,0 -1.78585,0.68365 -0.683646,0.68364 -0.920829,2.41369 l -5.692397,-0.46042 q 0.334847,-2.39973 1.227772,-3.73912 0.892925,-1.35334 2.511352,-2.06489 1.632378,-0.7255 4.50648,-0.7255 2.99967,0 4.659953,0.68364 1.674234,0.68365 2.622967,2.10675 0.962685,1.40914 0.962685,3.16709 0,1.86956 -1.102204,3.5717 -1.088253,1.70214 -3.976307,3.73912 -1.71609,1.18592 -2.302072,1.66029 -0.57203,0.47436 -1.35334,1.24172 h 8.873443 z"
         id="text42"
         style="font-size:28.5736px;line-height:1.25;font-family:'Arial Black';-inkscape-font-specification:'Arial Black, Normal';letter-spacing:0px;word-spacing:0px;fill:#ffffff;stroke-width:0.9741"
         aria-label="12" /><path
         d="m 87.558779,529.19007 -5.650541,0.6976 q -0.223231,-1.18592 -0.753406,-1.67424 -0.516222,-0.48831 -1.283579,-0.48831 -1.381244,0 -2.148601,1.39519 -0.558078,1.00454 -0.823165,4.2972 1.018492,-1.03244 2.092793,-1.52076 1.0743,-0.50227 2.483447,-0.50227 2.734583,0 4.618097,1.95327 1.897466,1.95328 1.897466,4.95295 0,2.02303 -0.962685,3.69726 -0.948733,1.67424 -2.650871,2.53926 -1.688187,0.85107 -4.241394,0.85107 -3.06943,0 -4.92504,-1.0464 -1.85561,-1.04639 -2.971766,-3.33451 -1.102204,-2.30208 -1.102204,-6.08306 0,-5.53892 2.329976,-8.10608 2.329976,-2.58111 6.459755,-2.58111 2.441591,0 3.850739,0.57203 1.423099,0.55808 2.35788,1.64633 0.934781,1.08825 1.423099,2.73458 z m -10.463965,9.11063 q 0,1.66028 0.837117,2.60901 0.837117,0.93478 2.050937,0.93478 1.116157,0 1.869562,-0.85107 0.753406,-0.85107 0.753406,-2.53925 0,-1.73004 -0.78131,-2.63692 -0.781309,-0.90688 -1.939321,-0.90688 -1.185916,0 -1.99513,0.87897 -0.795261,0.87898 -0.795261,2.51136 z"
         id="text42-3"
         style="font-size:28.5736px;line-height:1.25;font-family:'Arial Black';-inkscape-font-specification:'Arial Black, Normal';letter-spacing:0px;word-spacing:0px;fill:#ffffff;stroke-width:0.9741"
         aria-label="6" /><path
         d="m -8.6000874,465.73924 5.6505411,-0.71155 q 0.2232313,1.18592 0.7534055,1.67424 0.5301743,0.48832 1.29753171,0.48832 1.36729144,0 2.13464889,-1.38125 0.5580781,-1.01849 0.8371172,-4.31115 -1.0184926,1.0464 -2.09279302,1.53472 -1.07430038,0.48831 -2.48344768,0.48831 -2.7485349,0 -4.6460006,-1.95327 -1.8835137,-1.95327 -1.8835137,-4.93899 0,-2.03699 0.9626848,-3.71122 0.9626848,-1.67424 2.6508712,-2.5253 1.6881863,-0.86503 4.2413938,-0.86503 3.0694298,0 4.9250396,1.06035 1.8556098,1.0464 2.9578142,3.34847 1.1161562,2.28812 1.1161562,6.05515 0,5.53893 -2.3299762,8.12004 -2.3299762,2.56716 -6.45975446,2.56716 -2.44159184,0 -3.85073914,-0.55808 -1.4091473,-0.57203 -2.3439282,-1.66028 -0.9347809,-1.08826 -1.4370512,-2.72064 z m 10.4639651,-9.12457 q 0,-1.66029 -0.8371172,-2.59507 -0.83711722,-0.94873 -2.0369852,-0.94873 -1.1301083,0 -1.8835137,0.85107 -0.7394536,0.85107 -0.7394536,2.55321 0,1.71609 0.7673575,2.62296 0.7813094,0.90688 1.9393215,0.90688 1.199868,0 1.9951293,-0.87897 0.7952614,-0.87897 0.7952614,-2.51135 z"
         id="text42-3-8"
         style="font-size:28.5736px;line-height:1.25;font-family:'Arial Black';-inkscape-font-specification:'Arial Black, Normal';letter-spacing:0px;word-spacing:0px;fill:#ffffff"
         aria-label="9" /><path
         d="m 158.75159,450.76611 -5.3715,-0.96268 q 0.66969,-2.56716 2.56716,-3.93445 1.91141,-1.3673 5.3994,-1.3673 4.00421,0 5.79006,1.49286 1.78585,1.49286 1.78585,3.75308 0,1.32543 -0.7255,2.39973 -0.7255,1.0743 -2.19045,1.88352 1.18591,0.29299 1.81375,0.68364 1.01849,0.62784 1.57657,1.66029 0.57203,1.01849 0.57203,2.44159 0,1.78585 -0.93478,3.43218 -0.93478,1.63238 -2.69273,2.5253 -1.75794,0.87898 -4.61809,0.87898 -2.7904,0 -4.40882,-0.65575 -1.60448,-0.65574 -2.65087,-1.91141 -1.03245,-1.26963 -1.59053,-3.18105 l 5.67845,-0.7534 q 0.33485,1.71609 1.03244,2.38578 0.71155,0.65574 1.79981,0.65574 1.14406,0 1.89746,-0.83712 0.76736,-0.83711 0.76736,-2.23231 0,-1.4231 -0.73945,-2.20441 -0.72551,-0.78131 -1.98118,-0.78131 -0.6697,0 -1.84166,0.33485 l 0.29299,-4.06002 q 0.47437,0.0698 0.73945,0.0698 1.11616,0 1.85561,-0.71155 0.75341,-0.71155 0.75341,-1.68818 0,-0.93479 -0.55808,-1.49286 -0.55808,-0.55808 -1.53471,-0.55808 -1.00454,0 -1.63238,0.61388 -0.62784,0.59994 -0.85107,2.1207 z"
         id="text42-5"
         style="font-size:28.5736px;line-height:1.25;font-family:'Arial Black';-inkscape-font-specification:'Arial Black, Normal';letter-spacing:0px;word-spacing:0px;fill:#ffffff;stroke-width:0.9741"
         aria-label="3" /></g></g></svg>
